<?xml version="1.0" standalone="no"?>
<!DOCTYPE svg PUBLIC "-//W3C//DTD SVG 20010904//EN"
 "http://www.w3.org/TR/2001/REC-SVG-20010904/DTD/svg10.dtd">
<svg version="1.0" xmlns="http://www.w3.org/2000/svg"
 width="439.000000pt" height="144.000000pt" viewBox="0 0 439.000000 144.000000"
 preserveAspectRatio="xMidYMid meet">

<g transform="translate(0.000000,144.000000) scale(0.100000,-0.100000)"
fill="#000000" stroke="none">
<path d="M430 1359 c-14 -6 -34 -19 -46 -30 -20 -19 -21 -19 -62 3 -39 22 -42
22 -58 6 -21 -21 -21 -78 1 -120 14 -29 14 -32 -6 -46 -13 -9 -19 -23 -18 -41
3 -21 -8 -37 -49 -75 -29 -27 -64 -74 -79 -105 -24 -49 -28 -68 -28 -146 0
-82 3 -97 33 -158 18 -37 30 -72 27 -78 -22 -34 61 -113 260 -247 l80 -54 70
6 c61 5 309 61 358 81 11 5 17 3 17 -7 0 -40 106 -68 138 -36 8 8 12 56 12
148 0 125 -2 138 -20 155 -19 17 -21 29 -19 149 1 72 1 186 0 254 l-1 122
-163 0 -163 0 -43 -44 -44 -45 -33 26 c-26 20 -33 30 -28 48 4 16 -1 30 -15
44 -19 19 -19 22 -5 57 8 20 14 50 12 67 -5 50 -75 86 -128 66z m92 -37 c12
-14 10 -14 -11 -3 -27 15 -84 7 -101 -14 -10 -13 -9 -19 5 -35 22 -24 9 -27
-17 -3 -24 22 -23 38 5 56 43 28 96 28 119 -1z m-201 -10 c45 -30 124 -103
103 -96 -10 4 -40 27 -66 51 -26 23 -52 43 -58 43 -13 0 -13 -87 0 -95 6 -3
10 -12 10 -18 -1 -24 -38 38 -43 71 -10 61 7 76 54 44z m214 -152 c4 -6 -38
-10 -120 -10 -121 0 -126 -1 -134 -22 -8 -21 -10 -21 -16 -5 -16 38 10 47 141
47 71 0 125 -4 129 -10z m493 -287 l-3 -248 -32 -3 c-20 -2 -40 -13 -52 -28
-24 -30 -51 -30 -126 1 -72 30 -106 31 -162 5 l-43 -19 0 209 0 210 65 0 65 0
0 60 0 60 145 0 145 0 -2 -247z m-353 177 c-21 -22 -41 -37 -44 -35 -2 3 13
23 34 45 21 22 41 37 44 35 2 -3 -13 -23 -34 -45z m-296 10 c58 0 81 -7 81
-25 0 -16 -13 -21 -90 -35 -112 -21 -175 -92 -174 -195 0 -104 59 -182 184
-241 33 -15 57 -30 55 -32 -2 -2 -51 12 -109 33 -59 20 -118 35 -134 33 -24
-3 -30 3 -57 57 -70 140 -28 328 91 409 33 23 38 23 70 10 18 -8 56 -14 83
-14z m11 -116 c0 -15 6 -24 15 -24 10 0 15 10 15 30 0 17 5 30 10 30 6 0 10
-13 10 -30 0 -28 2 -30 39 -30 22 0 43 -4 46 -10 4 -6 -28 -10 -89 -10 -83 0
-99 -3 -116 -20 -16 -16 -18 -25 -10 -40 11 -20 43 -29 129 -33 45 -2 57 -6
73 -28 16 -22 17 -29 7 -52 -7 -16 -25 -31 -45 -37 -29 -10 -34 -16 -34 -41 0
-18 -4 -28 -10 -24 -5 3 -10 17 -10 31 0 34 -28 31 -32 -3 -4 -36 -22 -36 -26
-1 -3 23 -9 27 -38 30 -19 2 -35 8 -37 13 -1 6 36 11 92 13 98 3 121 11 121
43 0 27 -31 39 -103 39 -102 0 -148 51 -95 107 12 13 30 23 40 23 12 0 18 7
18 23 0 13 3 27 6 30 12 11 24 -3 24 -29z m420 -367 c103 -43 120 -52 120 -64
0 -18 -6 -17 -88 12 -39 14 -84 25 -100 25 -15 0 -66 -18 -112 -40 -46 -23
-104 -43 -129 -46 -46 -5 -46 -5 -23 13 52 40 219 123 247 123 17 0 55 -11 85
-23z m245 14 c3 -6 -12 -11 -32 -13 l-38 -3 -3 -127 c-2 -118 -10 -152 -26
-112 -12 30 -7 239 6 252 14 14 84 16 93 3z m-713 -52 l128 -41 -23 -19 -22
-19 25 -20 c35 -27 97 -26 166 5 79 35 81 22 3 -15 -77 -36 -134 -39 -173 -9
-15 12 -31 32 -36 44 -6 14 -28 29 -68 43 -70 26 -98 28 -106 6 -7 -19 16 -41
120 -115 125 -90 146 -99 223 -94 47 3 57 2 36 -4 -16 -5 -52 -9 -79 -10 -43
-1 -58 5 -130 53 -123 83 -246 185 -246 205 0 42 24 41 182 -10z m135 -15 c-3
-3 -12 -4 -19 -1 -8 3 -5 6 6 6 11 1 17 -2 13 -5z m210 -210 c-3 -3 -12 -4
-19 -1 -8 3 -5 6 6 6 11 1 17 -2 13 -5z"/>
<path d="M842 1095 c-38 -17 -66 -71 -56 -110 11 -43 52 -75 96 -75 86 0 131
104 72 164 -15 14 -32 26 -40 26 -7 0 -18 2 -26 5 -7 2 -28 -2 -46 -10z m33
-20 c-19 -8 -24 -14 -13 -14 9 -1 21 -9 27 -18 9 -17 10 -17 16 0 4 9 13 17
21 17 18 0 18 -14 -1 -30 -14 -11 -13 -14 1 -24 9 -7 15 -21 12 -32 -4 -24
-46 -32 -54 -9 -6 14 -8 14 -25 -1 -24 -21 -38 -10 -17 13 13 16 13 20 -4 36
-18 17 -19 17 -28 -5 l-9 -23 0 23 c-1 30 51 82 81 82 21 -1 20 -2 -7 -15z"/>
<path d="M905 980 c-3 -5 -1 -10 4 -10 6 0 11 5 11 10 0 6 -2 10 -4 10 -3 0
-8 -4 -11 -10z"/>
<path d="M655 880 c4 -6 68 -10 160 -10 92 0 156 4 160 10 4 7 -52 10 -160 10
-108 0 -164 -3 -160 -10z"/>
<path d="M660 772 c-6 -2 -8 -8 -4 -13 8 -13 327 -12 322 2 -3 9 -292 19 -318
11z"/>
<path d="M655 640 c4 -6 70 -10 166 -10 99 0 159 4 159 10 0 6 -62 10 -166 10
-107 0 -163 -3 -159 -10z"/>
<path d="M4125 959 c-12 -19 5 -23 22 -6 16 16 16 17 1 17 -9 0 -20 -5 -23
-11z"/>
<path d="M1353 913 c-22 -4 -23 -9 -23 -89 0 -77 2 -84 20 -84 15 0 20 7 20
25 0 23 3 25 49 25 32 0 55 6 65 16 20 20 21 78 1 94 -17 14 -95 22 -132 13z
m102 -58 c0 -16 -8 -21 -42 -23 -40 -3 -43 -2 -43 23 0 25 3 26 43 23 34 -2
42 -7 42 -23z"/>
<path d="M1558 913 c-15 -4 -18 -17 -18 -89 0 -77 2 -84 20 -84 16 0 20 7 20
30 0 27 3 30 30 30 23 0 33 -7 45 -30 9 -18 23 -30 35 -30 22 0 26 20 8 38 -9
9 -9 17 1 35 19 36 10 79 -19 94 -24 12 -87 15 -122 6z m107 -53 c0 -10 -13
-16 -42 -18 -38 -3 -43 -1 -43 18 0 19 5 21 43 18 29 -2 42 -8 42 -18z"/>
<path d="M1752 833 l3 -88 80 0 c68 0 80 3 83 18 3 15 -5 17 -57 17 -48 0 -61
3 -61 15 0 11 12 15 45 15 38 0 45 3 45 20 0 17 -7 20 -45 20 -33 0 -45 4 -45
15 0 12 13 15 61 15 52 0 60 2 57 18 -3 14 -16 17 -86 20 l-83 3 3 -88z"/>
<path d="M1987 908 c-33 -12 -47 -53 -24 -75 9 -9 39 -18 67 -21 74 -7 59 -27
-19 -25 -53 1 -61 -1 -61 -16 0 -14 11 -20 46 -25 77 -10 124 8 124 50 0 31
-36 54 -83 54 -27 0 -37 4 -34 13 3 8 22 12 56 11 43 -2 51 1 51 16 0 28 -69
38 -123 18z"/>
<path d="M2150 900 c0 -16 6 -20 30 -20 29 0 29 0 32 -67 3 -60 5 -68 23 -68
18 0 20 8 23 68 l3 67 35 0 c28 0 35 4 32 18 -3 14 -17 17 -91 20 -82 3 -87 2
-87 -18z"/>
<path d="M2366 853 c-48 -97 -52 -113 -27 -113 11 0 22 9 26 20 5 16 15 20 55
20 40 0 50 -4 55 -21 4 -12 13 -19 23 -16 21 4 21 6 -22 100 -46 101 -63 103
-110 10z m68 1 c11 -28 6 -44 -12 -44 -27 0 -32 9 -20 36 13 28 23 31 32 8z"/>
<path d="M2550 830 c0 -83 1 -90 20 -90 17 0 20 7 20 50 0 57 8 62 33 20 10
-16 24 -30 32 -30 8 0 22 14 32 30 25 43 33 37 33 -21 0 -43 3 -50 18 -47 14
3 17 17 20 91 3 81 1 87 -17 87 -12 0 -32 -17 -51 -45 -17 -25 -33 -45 -35
-45 -2 0 -18 20 -35 45 -19 27 -39 45 -50 45 -18 0 -20 -7 -20 -90z"/>
<path d="M2844 906 c-34 -15 -44 -32 -44 -77 0 -46 16 -67 60 -79 49 -13 115
2 130 30 13 24 13 76 0 100 -10 19 -60 40 -94 40 -12 -1 -35 -7 -52 -14z m100
-42 c34 -34 8 -84 -44 -84 -35 0 -60 23 -60 55 0 42 72 62 104 29z"/>
<path d="M3069 909 c-44 -16 -46 -73 -3 -90 14 -5 41 -9 60 -9 24 0 34 -4 31
-12 -3 -9 -24 -12 -66 -11 -54 2 -61 1 -61 -16 0 -14 10 -20 46 -25 81 -11
124 8 124 55 0 34 -27 49 -86 49 -24 0 -34 4 -31 13 3 8 22 12 56 11 43 -2 51
1 51 16 0 28 -67 39 -121 19z"/>
<path d="M3310 830 c0 -83 1 -90 20 -90 17 0 20 7 20 50 0 57 11 63 37 20 22
-38 30 -38 64 3 l28 32 1 -52 c0 -46 3 -53 20 -53 19 0 20 7 20 90 0 83 -2 90
-20 90 -11 0 -31 -18 -50 -45 -17 -25 -33 -45 -35 -45 -2 0 -16 20 -32 45 -20
32 -35 45 -50 45 -22 0 -23 -3 -23 -90z"/>
<path d="M3592 835 c-37 -75 -40 -86 -25 -92 11 -4 21 1 31 15 20 30 91 31
110 2 13 -22 42 -27 41 -7 0 6 -17 46 -37 87 -52 105 -66 104 -120 -5z m88
-17 c0 -5 -11 -8 -25 -8 -27 0 -31 10 -14 42 11 21 12 21 25 -3 7 -13 13 -27
14 -31z"/>
<path d="M3785 908 c-2 -7 -3 -47 -2 -88 2 -68 4 -75 22 -75 17 0 20 8 23 50
l3 50 30 -35 29 -35 30 34 29 34 3 -49 c3 -41 6 -49 23 -49 18 0 20 8 23 88 3
85 2 87 -20 87 -16 0 -31 -13 -51 -45 -16 -25 -32 -45 -35 -45 -4 0 -20 20
-35 45 -28 44 -62 60 -72 33z"/>
<path d="M4070 840 c-22 -44 -40 -84 -40 -90 0 -18 29 -11 42 10 19 30 103 29
111 -1 4 -13 12 -19 23 -17 22 4 22 7 -21 101 -47 103 -62 103 -115 -3z m74 8
c9 -35 8 -38 -19 -38 -29 0 -29 0 -13 35 14 31 24 32 32 3z"/>
<path d="M1332 571 c-8 -5 -12 -17 -10 -27 3 -18 43 -19 1446 -22 l1443 -2 -3
27 -3 28 -1430 2 c-786 2 -1436 -1 -1443 -6z"/>
</g>
</svg>
