<?xml version="1.0" standalone="no"?>
<!DOCTYPE svg PUBLIC "-//W3C//DTD SVG 20010904//EN"
 "http://www.w3.org/TR/2001/REC-SVG-20010904/DTD/svg10.dtd">
<svg version="1.0" xmlns="http://www.w3.org/2000/svg"
 width="144.000000pt" height="47.000000pt" viewBox="0 0 144.000000 47.000000"
 preserveAspectRatio="xMidYMid meet">

<g transform="translate(0.000000,47.000000) scale(0.100000,-0.100000)"
fill="#000000" stroke="none">
<path d="M131 441 c-7 -5 -22 -6 -32 -4 -16 4 -18 0 -17 -30 1 -25 -7 -45 -25
-67 -15 -17 -27 -39 -27 -48 1 -9 7 -3 14 14 18 41 30 47 74 39 l37 -8 -32 -9
c-34 -9 -63 -41 -63 -69 0 -9 10 -29 22 -44 l21 -27 -24 7 c-26 8 -39 22 -39
44 0 8 -3 12 -6 9 -3 -3 -1 -23 5 -45 8 -29 24 -49 61 -77 50 -38 52 -39 108
-30 31 4 76 7 100 6 23 0 43 2 43 6 11 70 -1 113 -30 105 -12 -3 -18 -9 -15
-14 3 -5 -5 -9 -18 -9 -19 0 -20 -2 -8 -10 11 -8 8 -9 -13 -4 -16 4 -43 0 -67
-10 -22 -9 -40 -14 -40 -11 0 10 60 35 85 35 14 0 25 5 25 11 0 8 -12 10 -35
6 l-36 -6 3 62 c2 50 6 62 19 59 9 -1 21 9 27 23 10 22 9 25 -6 25 -10 0 -23
-5 -30 -12 -16 -16 -22 -8 -29 38 -8 49 -24 63 -52 45z m4 -141 c3 -6 -4 -10
-17 -10 -18 0 -20 2 -8 10 19 12 18 12 25 0z m15 -74 c0 -9 -30 -14 -35 -6 -4
6 3 10 14 10 12 0 21 -2 21 -4z m-47 -47 c7 0 3 -4 -8 -8 -22 -9 -35 -5 -35
11 0 5 7 7 16 4 9 -3 21 -6 27 -7z m214 -51 c-2 -13 -4 -5 -4 17 -1 22 1 32 4
23 2 -10 2 -28 0 -40z m-177 32 c0 -5 -2 -10 -4 -10 -3 0 -8 5 -11 10 -3 6 -1
10 4 10 6 0 11 -4 11 -10z"/>
<path d="M264 344 c-4 -13 -1 -31 6 -38 9 -12 5 -15 -22 -19 -21 -2 -12 -4 22
-5 30 0 49 2 42 5 -10 4 -10 8 -1 19 6 8 9 23 6 33 -3 13 1 21 12 24 9 2 -1 4
-22 4 -31 1 -38 -3 -43 -23z m36 -21 c0 -13 -3 -13 -15 -3 -8 7 -15 16 -15 21
0 5 7 6 15 3 8 -4 15 -13 15 -21z"/>
<path d="M434 285 c-4 -8 -4 -21 -1 -29 8 -20 57 3 57 27 0 22 -48 24 -56 2z
m36 -5 c0 -5 -5 -10 -11 -10 -5 0 -7 5 -4 10 3 6 8 10 11 10 2 0 4 -4 4 -10z"/>
<path d="M506 285 c-8 -22 4 -51 15 -34 6 10 11 10 23 0 14 -12 16 -10 16 18
0 26 -4 31 -24 31 -13 0 -26 -7 -30 -15z"/>
<path d="M572 273 c2 -22 9 -29 31 -31 28 -3 33 3 17 28 -6 9 -5 17 3 22 7 4
-2 8 -21 8 -30 0 -33 -2 -30 -27z"/>
<path d="M644 289 c-3 -6 0 -15 7 -20 10 -6 11 -9 2 -9 -7 0 -13 -4 -13 -10 0
-12 47 -14 54 -2 3 5 2 18 -1 30 -6 23 -37 30 -49 11z"/>
<path d="M710 291 c0 -6 5 -13 10 -16 6 -4 8 -10 5 -15 -3 -5 -1 -11 5 -15 5
-3 10 3 10 14 0 12 5 21 10 21 6 0 10 5 10 10 0 6 -11 10 -25 10 -14 0 -25 -4
-25 -9z"/>
<path d="M772 275 c-16 -34 -16 -32 18 -31 32 1 36 7 20 37 -14 26 -25 24 -38
-6z"/>
<path d="M839 299 c-7 -38 -7 -49 1 -54 6 -3 10 1 10 11 0 13 3 14 14 5 11 -9
15 -9 19 1 3 8 6 5 7 -7 1 -15 4 -12 11 9 10 35 5 44 -16 26 -12 -10 -18 -10
-30 0 -8 7 -15 11 -16 9z"/>
<path d="M924 285 c-9 -23 3 -45 25 -45 22 0 41 27 34 48 -6 17 -52 15 -59 -3z
m46 -16 c0 -5 -9 -9 -20 -9 -22 0 -27 16 -7 23 15 5 27 -1 27 -14z"/>
<path d="M997 293 c-4 -3 -2 -12 4 -20 9 -10 8 -13 -2 -13 -9 0 -10 -3 -2 -11
20 -20 48 -6 48 24 1 21 -4 27 -20 27 -12 0 -25 -3 -28 -7z"/>
<path d="M1085 275 c3 -28 15 -47 15 -24 0 8 9 15 20 15 11 0 20 -7 20 -15 0
-11 3 -12 11 -4 6 6 8 21 4 33 -5 17 -9 19 -21 9 -11 -9 -18 -9 -26 -1 -19 19
-26 14 -23 -13z"/>
<path d="M1180 281 c-16 -30 -12 -36 20 -36 17 0 30 1 30 2 0 1 -5 14 -12 28
-13 30 -24 32 -38 6z"/>
<path d="M1240 269 c0 -22 3 -28 13 -22 17 11 30 11 45 0 9 -7 12 -2 12 22 0
31 -14 42 -23 19 -4 -10 -7 -10 -18 0 -21 19 -29 14 -29 -19z"/>
<path d="M1332 275 c-16 -34 -16 -32 18 -31 32 1 40 22 18 44 -17 17 -23 15
-36 -13z"/>
<path d="M332 255 c0 -16 2 -22 5 -12 2 9 2 23 0 30 -3 6 -5 -1 -5 -18z"/>
<path d="M235 250 c3 -6 20 -10 37 -10 38 0 34 5 -10 13 -21 4 -31 3 -27 -3z"/>
<path d="M440 180 c0 -7 163 -10 470 -10 307 0 470 3 470 10 0 7 -163 10 -470
10 -307 0 -470 -3 -470 -10z"/>
</g>
</svg>
